<svg width="160" height="24" viewBox="0 0 160 24" fill="none" xmlns="http://www.w3.org/2000/svg">
<path d="M39.992 7.242V14.452C39.992 15.2547 39.7447 15.8987 39.25 16.384C38.7553 16.86 38.102 17.098 37.29 17.098C36.4687 17.098 35.8107 16.8553 35.316 16.37C34.8213 15.8753 34.574 15.2033 34.574 14.354H35.848C35.8573 14.83 35.9787 15.2173 36.212 15.516C36.4547 15.8147 36.814 15.964 37.29 15.964C37.766 15.964 38.1207 15.824 38.354 15.544C38.5873 15.2547 38.704 14.8907 38.704 14.452V7.242H39.992ZM42.0258 13.136C42.0258 12.352 42.1845 11.666 42.5018 11.078C42.8192 10.4807 43.2532 10.0187 43.8038 9.692C44.3638 9.36533 44.9845 9.202 45.6658 9.202C46.3378 9.202 46.9212 9.34667 47.4158 9.636C47.9105 9.92533 48.2792 10.2893 48.5218 10.728V9.328H49.8098V17H48.5218V15.572C48.2698 16.02 47.8918 16.3933 47.3878 16.692C46.8932 16.9813 46.3145 17.126 45.6518 17.126C44.9705 17.126 44.3545 16.958 43.8038 16.622C43.2532 16.286 42.8192 15.8147 42.5018 15.208C42.1845 14.6013 42.0258 13.9107 42.0258 13.136ZM48.5218 13.15C48.5218 12.5713 48.4052 12.0673 48.1718 11.638C47.9385 11.2087 47.6212 10.882 47.2198 10.658C46.8278 10.4247 46.3938 10.308 45.9178 10.308C45.4418 10.308 45.0078 10.42 44.6158 10.644C44.2238 10.868 43.9112 11.1947 43.6778 11.624C43.4445 12.0533 43.3278 12.5573 43.3278 13.136C43.3278 13.724 43.4445 14.2373 43.6778 14.676C43.9112 15.1053 44.2238 15.4367 44.6158 15.67C45.0078 15.894 45.4418 16.006 45.9178 16.006C46.3938 16.006 46.8278 15.894 47.2198 15.67C47.6212 15.4367 47.9385 15.1053 48.1718 14.676C48.4052 14.2373 48.5218 13.7287 48.5218 13.15ZM56.2468 17L53.2368 13.612V17H51.9628V6.64H53.2368V12.73L56.1908 9.328H57.9688L54.3568 13.15L57.9828 17H56.2468ZM58.6918 13.136C58.6918 12.352 58.8505 11.666 59.1678 11.078C59.4852 10.4807 59.9192 10.0187 60.4698 9.692C61.0298 9.36533 61.6505 9.202 62.3318 9.202C63.0038 9.202 63.5872 9.34667 64.0818 9.636C64.5765 9.92533 64.9452 10.2893 65.1878 10.728V9.328H66.4758V17H65.1878V15.572C64.9358 16.02 64.5578 16.3933 64.0538 16.692C63.5592 16.9813 62.9805 17.126 62.3178 17.126C61.6365 17.126 61.0205 16.958 60.4698 16.622C59.9192 16.286 59.4852 15.8147 59.1678 15.208C58.8505 14.6013 58.6918 13.9107 58.6918 13.136ZM65.1878 13.15C65.1878 12.5713 65.0712 12.0673 64.8378 11.638C64.6045 11.2087 64.2872 10.882 63.8858 10.658C63.4938 10.4247 63.0598 10.308 62.5838 10.308C62.1078 10.308 61.6738 10.42 61.2818 10.644C60.8898 10.868 60.5772 11.1947 60.3438 11.624C60.1105 12.0533 59.9938 12.5573 59.9938 13.136C59.9938 13.724 60.1105 14.2373 60.3438 14.676C60.5772 15.1053 60.8898 15.4367 61.2818 15.67C61.6738 15.894 62.1078 16.006 62.5838 16.006C63.0598 16.006 63.4938 15.894 63.8858 15.67C64.2872 15.4367 64.6045 15.1053 64.8378 14.676C65.0712 14.2373 65.1878 13.7287 65.1878 13.15ZM69.9028 10.574C70.1268 10.1353 70.4441 9.79467 70.8548 9.552C71.2748 9.30933 71.7834 9.188 72.3808 9.188V10.504H72.0448C70.6168 10.504 69.9028 11.2787 69.9028 12.828V17H68.6288V9.328H69.9028V10.574ZM75.4054 10.378V14.9C75.4054 15.2733 75.4848 15.5393 75.6434 15.698C75.8021 15.8473 76.0774 15.922 76.4694 15.922H77.4074V17H76.2594C75.5501 17 75.0181 16.8367 74.6634 16.51C74.3088 16.1833 74.1314 15.6467 74.1314 14.9V10.378H73.1374V9.328H74.1314V7.396H75.4054V9.328H77.4074V10.378H75.4054ZM78.475 13.136C78.475 12.352 78.6337 11.666 78.951 11.078C79.2684 10.4807 79.7024 10.0187 80.253 9.692C80.813 9.36533 81.4337 9.202 82.115 9.202C82.787 9.202 83.3704 9.34667 83.865 9.636C84.3597 9.92533 84.7284 10.2893 84.971 10.728V9.328H86.259V17H84.971V15.572C84.719 16.02 84.341 16.3933 83.837 16.692C83.3424 16.9813 82.7637 17.126 82.101 17.126C81.4197 17.126 80.8037 16.958 80.253 16.622C79.7024 16.286 79.2684 15.8147 78.951 15.208C78.6337 14.6013 78.475 13.9107 78.475 13.136ZM84.971 13.15C84.971 12.5713 84.8544 12.0673 84.621 11.638C84.3877 11.2087 84.0704 10.882 83.669 10.658C83.277 10.4247 82.843 10.308 82.367 10.308C81.891 10.308 81.457 10.42 81.065 10.644C80.673 10.868 80.3604 11.1947 80.127 11.624C79.8937 12.0533 79.777 12.5573 79.777 13.136C79.777 13.724 79.8937 14.2373 80.127 14.676C80.3604 15.1053 80.673 15.4367 81.065 15.67C81.457 15.894 81.891 16.006 82.367 16.006C82.843 16.006 83.277 15.894 83.669 15.67C84.0704 15.4367 84.3877 15.1053 84.621 14.676C84.8544 14.2373 84.971 13.7287 84.971 13.15ZM93.4184 7.242V17H92.1444V7.242H93.4184ZM99.3277 9.188C100.261 9.188 101.017 9.47267 101.596 10.042C102.174 10.602 102.464 11.414 102.464 12.478V17H101.204V12.66C101.204 11.8947 101.012 11.3113 100.63 10.91C100.247 10.4993 99.7244 10.294 99.0617 10.294C98.3897 10.294 97.8531 10.504 97.4517 10.924C97.0597 11.344 96.8637 11.9553 96.8637 12.758V17H95.5897V9.328H96.8637V10.42C97.1157 10.028 97.4564 9.72467 97.8857 9.51C98.3244 9.29533 98.8051 9.188 99.3277 9.188ZM104.069 13.136C104.069 12.352 104.227 11.666 104.545 11.078C104.862 10.4807 105.296 10.0187 105.847 9.692C106.407 9.36533 107.032 9.202 107.723 9.202C108.32 9.202 108.875 9.342 109.389 9.622C109.902 9.89267 110.294 10.252 110.565 10.7V6.64H111.853V17H110.565V15.558C110.313 16.0153 109.939 16.3933 109.445 16.692C108.95 16.9813 108.371 17.126 107.709 17.126C107.027 17.126 106.407 16.958 105.847 16.622C105.296 16.286 104.862 15.8147 104.545 15.208C104.227 14.6013 104.069 13.9107 104.069 13.136ZM110.565 13.15C110.565 12.5713 110.448 12.0673 110.215 11.638C109.981 11.2087 109.664 10.882 109.263 10.658C108.871 10.4247 108.437 10.308 107.961 10.308C107.485 10.308 107.051 10.42 106.659 10.644C106.267 10.868 105.954 11.1947 105.721 11.624C105.487 12.0533 105.371 12.5573 105.371 13.136C105.371 13.724 105.487 14.2373 105.721 14.676C105.954 15.1053 106.267 15.4367 106.659 15.67C107.051 15.894 107.485 16.006 107.961 16.006C108.437 16.006 108.871 15.894 109.263 15.67C109.664 15.4367 109.981 15.1053 110.215 14.676C110.448 14.2373 110.565 13.7287 110.565 13.15ZM117.352 17.126C116.633 17.126 115.98 16.9627 115.392 16.636C114.813 16.3093 114.356 15.8473 114.02 15.25C113.693 14.6433 113.53 13.9433 113.53 13.15C113.53 12.366 113.698 11.6753 114.034 11.078C114.379 10.4713 114.846 10.0093 115.434 9.692C116.022 9.36533 116.68 9.202 117.408 9.202C118.136 9.202 118.794 9.36533 119.382 9.692C119.97 10.0093 120.432 10.4667 120.768 11.064C121.113 11.6613 121.286 12.3567 121.286 13.15C121.286 13.9433 121.108 14.6433 120.754 15.25C120.408 15.8473 119.937 16.3093 119.34 16.636C118.742 16.9627 118.08 17.126 117.352 17.126ZM117.352 16.006C117.809 16.006 118.238 15.8987 118.64 15.684C119.041 15.4693 119.363 15.1473 119.606 14.718C119.858 14.2887 119.984 13.766 119.984 13.15C119.984 12.534 119.862 12.0113 119.62 11.582C119.377 11.1527 119.06 10.8353 118.668 10.63C118.276 10.4153 117.851 10.308 117.394 10.308C116.927 10.308 116.498 10.4153 116.106 10.63C115.723 10.8353 115.415 11.1527 115.182 11.582C114.948 12.0113 114.832 12.534 114.832 13.15C114.832 13.7753 114.944 14.3027 115.168 14.732C115.401 15.1613 115.709 15.4833 116.092 15.698C116.474 15.9033 116.894 16.006 117.352 16.006ZM126.699 9.188C127.632 9.188 128.388 9.47267 128.967 10.042C129.545 10.602 129.835 11.414 129.835 12.478V17H128.575V12.66C128.575 11.8947 128.383 11.3113 128.001 10.91C127.618 10.4993 127.095 10.294 126.433 10.294C125.761 10.294 125.224 10.504 124.823 10.924C124.431 11.344 124.235 11.9553 124.235 12.758V17H122.961V9.328H124.235V10.42C124.487 10.028 124.827 9.72467 125.257 9.51C125.695 9.29533 126.176 9.188 126.699 9.188ZM138.916 12.87C138.916 13.1127 138.902 13.3693 138.874 13.64H132.742C132.789 14.396 133.045 14.9887 133.512 15.418C133.988 15.838 134.562 16.048 135.234 16.048C135.785 16.048 136.242 15.922 136.606 15.67C136.979 15.4087 137.241 15.0633 137.39 14.634H138.762C138.557 15.3713 138.146 15.9733 137.53 16.44C136.914 16.8973 136.149 17.126 135.234 17.126C134.506 17.126 133.853 16.9627 133.274 16.636C132.705 16.3093 132.257 15.8473 131.93 15.25C131.603 14.6433 131.44 13.9433 131.44 13.15C131.44 12.3567 131.599 11.6613 131.916 11.064C132.233 10.4667 132.677 10.0093 133.246 9.692C133.825 9.36533 134.487 9.202 135.234 9.202C135.962 9.202 136.606 9.36067 137.166 9.678C137.726 9.99533 138.155 10.434 138.454 10.994C138.762 11.5447 138.916 12.17 138.916 12.87ZM137.6 12.604C137.6 12.1187 137.493 11.7033 137.278 11.358C137.063 11.0033 136.769 10.7373 136.396 10.56C136.032 10.3733 135.626 10.28 135.178 10.28C134.534 10.28 133.983 10.4853 133.526 10.896C133.078 11.3067 132.821 11.876 132.756 12.604H137.6ZM143.314 17.126C142.726 17.126 142.198 17.028 141.732 16.832C141.265 16.6267 140.896 16.3467 140.626 15.992C140.355 15.628 140.206 15.2127 140.178 14.746H141.494C141.531 15.1287 141.708 15.4413 142.026 15.684C142.352 15.9267 142.777 16.048 143.3 16.048C143.785 16.048 144.168 15.9407 144.448 15.726C144.728 15.5113 144.868 15.2407 144.868 14.914C144.868 14.578 144.718 14.3307 144.42 14.172C144.121 14.004 143.659 13.8407 143.034 13.682C142.464 13.5327 141.998 13.3833 141.634 13.234C141.279 13.0753 140.971 12.8467 140.71 12.548C140.458 12.24 140.332 11.8387 140.332 11.344C140.332 10.952 140.448 10.5927 140.682 10.266C140.915 9.93933 141.246 9.68267 141.676 9.496C142.105 9.3 142.595 9.202 143.146 9.202C143.995 9.202 144.681 9.41667 145.204 9.846C145.726 10.2753 146.006 10.8633 146.044 11.61H144.77C144.742 11.2087 144.578 10.8867 144.28 10.644C143.99 10.4013 143.598 10.28 143.104 10.28C142.646 10.28 142.282 10.378 142.012 10.574C141.741 10.77 141.606 11.0267 141.606 11.344C141.606 11.596 141.685 11.806 141.844 11.974C142.012 12.1327 142.217 12.2633 142.46 12.366C142.712 12.4593 143.057 12.5667 143.496 12.688C144.046 12.8373 144.494 12.9867 144.84 13.136C145.185 13.276 145.479 13.4907 145.722 13.78C145.974 14.0693 146.104 14.4473 146.114 14.914C146.114 15.334 145.997 15.712 145.764 16.048C145.53 16.384 145.199 16.65 144.77 16.846C144.35 17.0327 143.864 17.126 143.314 17.126ZM148.57 8.082C148.327 8.082 148.122 7.998 147.954 7.83C147.786 7.662 147.702 7.45667 147.702 7.214C147.702 6.97133 147.786 6.766 147.954 6.598C148.122 6.43 148.327 6.346 148.57 6.346C148.803 6.346 148.999 6.43 149.158 6.598C149.326 6.766 149.41 6.97133 149.41 7.214C149.41 7.45667 149.326 7.662 149.158 7.83C148.999 7.998 148.803 8.082 148.57 8.082ZM149.186 9.328V17H147.912V9.328H149.186ZM150.881 13.136C150.881 12.352 151.04 11.666 151.357 11.078C151.675 10.4807 152.109 10.0187 152.659 9.692C153.219 9.36533 153.84 9.202 154.521 9.202C155.193 9.202 155.777 9.34667 156.271 9.636C156.766 9.92533 157.135 10.2893 157.377 10.728V9.328H158.665V17H157.377V15.572C157.125 16.02 156.747 16.3933 156.243 16.692C155.749 16.9813 155.17 17.126 154.507 17.126C153.826 17.126 153.21 16.958 152.659 16.622C152.109 16.286 151.675 15.8147 151.357 15.208C151.04 14.6013 150.881 13.9107 150.881 13.136ZM157.377 13.15C157.377 12.5713 157.261 12.0673 157.027 11.638C156.794 11.2087 156.477 10.882 156.075 10.658C155.683 10.4247 155.249 10.308 154.773 10.308C154.297 10.308 153.863 10.42 153.471 10.644C153.079 10.868 152.767 11.1947 152.533 11.624C152.3 12.0533 152.183 12.5573 152.183 13.136C152.183 13.724 152.3 14.2373 152.533 14.676C152.767 15.1053 153.079 15.4367 153.471 15.67C153.863 15.894 154.297 16.006 154.773 16.006C155.249 16.006 155.683 15.894 156.075 15.67C156.477 15.4367 156.794 15.1053 157.027 14.676C157.261 14.2373 157.377 13.7287 157.377 13.15Z" fill="#6B6B6B"/>
<path d="M21 10C21 17 12 23 12 23C12 23 3 17 3 10C3 7.61305 3.94821 5.32387 5.63604 3.63604C7.32387 1.94821 9.61305 1 12 1C14.3869 1 16.6761 1.94821 18.364 3.63604C20.0518 5.32387 21 7.61305 21 10Z" stroke="#595959" stroke-width="2" stroke-linecap="round" stroke-linejoin="round"/>
<path d="M12 13C13.6569 13 15 11.6569 15 10C15 8.34315 13.6569 7 12 7C10.3431 7 9 8.34315 9 10C9 11.6569 10.3431 13 12 13Z" stroke="#595959" stroke-width="2" stroke-linecap="round" stroke-linejoin="round"/>
</svg>
